<svg width="258" height="66" viewBox="0 0 258 66" fill="none" xmlns="http://www.w3.org/2000/svg">
<path d="M10.2539 48.9999H3.24707V13.9901H10.2539V31.495L23.291 13.9901H31.25L20.1904 28.7607L31.25 48.9999H23.291L15.6006 34.8398L10.2539 41.9931V48.9999ZM51.3916 45.9482C50.8545 46.4364 50.2767 46.9003 49.6582 47.3398C49.056 47.7629 48.4212 48.1373 47.7539 48.4628C47.0866 48.772 46.3949 49.0162 45.6787 49.1952C44.9788 49.3905 44.2627 49.4882 43.5303 49.4882C41.9189 49.4882 40.4053 49.2034 38.9893 48.6337C37.5732 48.064 36.3281 47.2584 35.2539 46.2167C34.196 45.1588 33.3577 43.8811 32.7393 42.3837C32.137 40.87 31.8359 39.1773 31.8359 37.3056V22.8524H38.4766V37.3056C38.4766 38.1845 38.6068 38.9739 38.8672 39.6737C39.1439 40.3573 39.5101 40.9351 39.9658 41.4071C40.4215 41.8791 40.9505 42.2372 41.5527 42.4814C42.1712 42.7255 42.8304 42.8476 43.5303 42.8476C44.2139 42.8476 44.8568 42.6929 45.459 42.3837C46.0775 42.0582 46.6146 41.635 47.0703 41.1142C47.526 40.5933 47.8841 40.0074 48.1445 39.3564C48.4049 38.689 48.5352 38.0054 48.5352 37.3056V22.8524H55.2002V48.9999H53.5889L51.3916 45.9482ZM74.6582 48.9999H59.4238V42.3593H74.6582C75.1139 42.3593 75.5046 42.1965 75.8301 41.871C76.1556 41.5455 76.3184 41.1549 76.3184 40.6991C76.3184 40.2271 76.1556 39.9179 75.8301 39.7714C75.5046 39.6249 75.1139 39.5517 74.6582 39.5517H67.7246C66.569 39.5517 65.4867 39.3319 64.4775 38.8925C63.4684 38.453 62.5895 37.859 61.8408 37.1103C61.0921 36.3453 60.498 35.4582 60.0586 34.4491C59.6354 33.44 59.4238 32.3577 59.4238 31.2021C59.4238 30.0465 59.6354 28.9641 60.0586 27.955C60.498 26.9459 61.0921 26.067 61.8408 25.3183C62.5895 24.5696 63.4684 23.9836 64.4775 23.5605C65.4867 23.121 66.569 22.9013 67.7246 22.9013H81.2256V29.5419H67.7246C67.2689 29.5419 66.8783 29.7047 66.5527 30.0302C66.2272 30.3557 66.0645 30.7463 66.0645 31.2021C66.0645 31.6741 66.2272 32.081 66.5527 32.4228C66.8783 32.7483 67.2689 32.911 67.7246 32.911H74.6582C75.7975 32.911 76.8717 33.1064 77.8809 33.497C78.89 33.8713 79.7689 34.4003 80.5176 35.0839C81.2663 35.7675 81.8604 36.5894 82.2998 37.5497C82.7393 38.51 82.959 39.5598 82.959 40.6991C82.959 41.8547 82.7393 42.9371 82.2998 43.9462C81.8604 44.939 81.2663 45.8179 80.5176 46.5829C79.7689 47.3316 78.89 47.9257 77.8809 48.3651C76.8717 48.7883 75.7975 48.9999 74.6582 48.9999ZM85.1807 24.4882C85.1807 23.0396 85.4574 21.6806 86.0107 20.411C86.5641 19.1415 87.3128 18.0347 88.2568 17.0907C89.2171 16.1304 90.332 15.3736 91.6016 14.8202C92.8711 14.2668 94.2301 13.9901 95.6787 13.9901H111.743V20.997H95.6787C95.1904 20.997 94.7347 21.0865 94.3115 21.2655C93.8883 21.4446 93.514 21.6968 93.1885 22.0224C92.8792 22.3316 92.6351 22.6978 92.4561 23.121C92.277 23.5442 92.1875 23.9999 92.1875 24.4882C92.1875 24.9765 92.277 25.4403 92.4561 25.8798C92.6351 26.303 92.8792 26.6773 93.1885 27.0028C93.514 27.3121 93.8883 27.5562 94.3115 27.7353C94.7347 27.9143 95.1904 28.0038 95.6787 28.0038H102.686C104.134 28.0038 105.493 28.2805 106.763 28.8339C108.049 29.371 109.163 30.1197 110.107 31.08C111.068 32.024 111.816 33.1389 112.354 34.4247C112.907 35.6942 113.184 37.0533 113.184 38.5019C113.184 39.9504 112.907 41.3095 112.354 42.579C111.816 43.8485 111.068 44.9635 110.107 45.9237C109.163 46.8677 108.049 47.6164 106.763 48.1698C105.493 48.7232 104.134 48.9999 102.686 48.9999H87.1338V41.9931H102.686C103.174 41.9931 103.63 41.9036 104.053 41.7245C104.476 41.5455 104.842 41.3013 105.151 40.9921C105.477 40.6666 105.729 40.2922 105.908 39.869C106.087 39.4459 106.177 38.9901 106.177 38.5019C106.177 38.0136 106.087 37.5579 105.908 37.1347C105.729 36.7115 105.477 36.3453 105.151 36.036C104.842 35.7105 104.476 35.4582 104.053 35.2792C103.63 35.1002 103.174 35.0107 102.686 35.0107H95.6787C94.2301 35.0107 92.8711 34.734 91.6016 34.1806C90.332 33.6272 89.2171 32.8785 88.2568 31.9345C87.3128 30.9742 86.5641 29.8593 86.0107 28.5898C85.4574 27.3039 85.1807 25.9368 85.1807 24.4882ZM123.145 58.9608V52.247L126.855 52.2958C127.507 52.2958 128.133 52.19 128.735 51.9784C129.338 51.7668 129.891 51.4739 130.396 51.0995C130.916 50.7252 131.372 50.2776 131.763 49.7567C132.153 49.2522 132.471 48.6988 132.715 48.0966C131.982 48.4058 131.234 48.7151 130.469 49.0243C129.72 49.3336 128.963 49.4882 128.198 49.4882C126.587 49.4882 125.073 49.2034 123.657 48.6337C122.241 48.064 120.996 47.2584 119.922 46.2167C118.864 45.1588 118.026 43.8811 117.407 42.3837C116.805 40.87 116.504 39.1773 116.504 37.3056V22.8524H123.145V37.3056C123.145 38.2333 123.275 39.0471 123.535 39.747C123.812 40.4306 124.178 41.0084 124.634 41.4804C125.09 41.9361 125.618 42.2779 126.221 42.5058C126.839 42.7336 127.498 42.8476 128.198 42.8476C128.882 42.8476 129.525 42.6929 130.127 42.3837C130.745 42.0582 131.283 41.635 131.738 41.1142C132.194 40.5933 132.552 40.0074 132.812 39.3564C133.073 38.689 133.203 38.0054 133.203 37.3056V22.8524H139.917V45.704C139.901 47.5432 139.543 49.2685 138.843 50.8798C138.143 52.4911 137.183 53.899 135.962 55.1034C134.757 56.3079 133.35 57.26 131.738 57.9599C130.127 58.6597 128.402 59.0097 126.562 59.0097L123.145 58.9608ZM159.375 48.9999H144.141V42.3593H159.375C159.831 42.3593 160.221 42.1965 160.547 41.871C160.872 41.5455 161.035 41.1549 161.035 40.6991C161.035 40.2271 160.872 39.9179 160.547 39.7714C160.221 39.6249 159.831 39.5517 159.375 39.5517H152.441C151.286 39.5517 150.203 39.3319 149.194 38.8925C148.185 38.453 147.306 37.859 146.558 37.1103C145.809 36.3453 145.215 35.4582 144.775 34.4491C144.352 33.44 144.141 32.3577 144.141 31.2021C144.141 30.0465 144.352 28.9641 144.775 27.955C145.215 26.9459 145.809 26.067 146.558 25.3183C147.306 24.5696 148.185 23.9836 149.194 23.5605C150.203 23.121 151.286 22.9013 152.441 22.9013H165.942V29.5419H152.441C151.986 29.5419 151.595 29.7047 151.27 30.0302C150.944 30.3557 150.781 30.7463 150.781 31.2021C150.781 31.6741 150.944 32.081 151.27 32.4228C151.595 32.7483 151.986 32.911 152.441 32.911H159.375C160.514 32.911 161.589 33.1064 162.598 33.497C163.607 33.8713 164.486 34.4003 165.234 35.0839C165.983 35.7675 166.577 36.5894 167.017 37.5497C167.456 38.51 167.676 39.5598 167.676 40.6991C167.676 41.8547 167.456 42.9371 167.017 43.9462C166.577 44.939 165.983 45.8179 165.234 46.5829C164.486 47.3316 163.607 47.9257 162.598 48.3651C161.589 48.7883 160.514 48.9999 159.375 48.9999ZM184.351 48.9999C182.739 48.9999 181.226 48.6988 179.81 48.0966C178.394 47.4781 177.148 46.6399 176.074 45.5819C175.016 44.5077 174.178 43.2626 173.56 41.8466C172.957 40.4306 172.656 38.9169 172.656 37.3056V29.5419H169.409V22.9013H172.656V12.4521H179.297V22.9013H189.404V29.5419H179.297V37.3056C179.297 38.0054 179.427 38.6646 179.688 39.2831C179.948 39.8853 180.306 40.4143 180.762 40.87C181.217 41.3258 181.755 41.692 182.373 41.9687C182.992 42.2291 183.651 42.3593 184.351 42.3593H189.404V48.9999H184.351ZM203.564 42.6034C203.825 42.6848 204.085 42.7418 204.346 42.7743C204.606 42.7906 204.867 42.7987 205.127 42.7987C205.778 42.7987 206.405 42.7092 207.007 42.5302C207.609 42.3511 208.171 42.0989 208.691 41.7733C209.229 41.4315 209.701 41.0246 210.107 40.5526C210.531 40.0644 210.872 39.5273 211.133 38.9413L216.016 43.8485C215.397 44.7274 214.681 45.5168 213.867 46.2167C213.07 46.9166 212.199 47.5107 211.255 47.9989C210.327 48.4872 209.342 48.8534 208.301 49.0976C207.275 49.358 206.217 49.4882 205.127 49.4882C203.288 49.4882 201.554 49.1464 199.927 48.4628C198.315 47.7792 196.899 46.8271 195.679 45.6064C194.474 44.3857 193.522 42.9371 192.822 41.2607C192.122 39.5679 191.772 37.7125 191.772 35.6942C191.772 33.6272 192.122 31.7392 192.822 30.0302C193.522 28.3212 194.474 26.8645 195.679 25.6601C196.899 24.4556 198.315 23.5198 199.927 22.8524C201.554 22.1851 203.288 21.8515 205.127 21.8515C206.217 21.8515 207.284 21.9817 208.325 22.2421C209.367 22.5025 210.352 22.8769 211.279 23.3651C212.223 23.8534 213.102 24.4556 213.916 25.1718C214.73 25.8717 215.446 26.661 216.064 27.5399L203.564 42.6034ZM206.982 28.8583C206.673 28.7444 206.364 28.6711 206.055 28.6386C205.762 28.606 205.452 28.5898 205.127 28.5898C204.215 28.5898 203.353 28.7607 202.539 29.1024C201.742 29.428 201.042 29.9 200.439 30.5185C199.854 31.137 199.39 31.8857 199.048 32.7646C198.706 33.6272 198.535 34.6037 198.535 35.6942C198.535 35.9384 198.543 36.2151 198.56 36.5243C198.592 36.8336 198.633 37.151 198.682 37.4765C198.747 37.7857 198.82 38.0868 198.901 38.3798C198.983 38.6728 199.089 38.9332 199.219 39.161L206.982 28.8583ZM252.686 48.9999H246.045V32.3983C246.045 31.9426 245.955 31.5113 245.776 31.1044C245.614 30.6975 245.378 30.3394 245.068 30.0302C244.759 29.7209 244.401 29.4849 243.994 29.3222C243.587 29.1431 243.156 29.0536 242.7 29.0536C242.244 29.0536 241.813 29.1431 241.406 29.3222C241.016 29.4849 240.666 29.7209 240.356 30.0302C240.063 30.3394 239.827 30.6975 239.648 31.1044C239.486 31.5113 239.404 31.9426 239.404 32.3983V48.9999H232.739V32.3983C232.739 31.9426 232.65 31.5113 232.471 31.1044C232.308 30.6975 232.072 30.3394 231.763 30.0302C231.453 29.7209 231.095 29.4849 230.688 29.3222C230.282 29.1431 229.85 29.0536 229.395 29.0536C228.939 29.0536 228.507 29.1431 228.101 29.3222C227.71 29.4849 227.36 29.7209 227.051 30.0302C226.758 30.3394 226.522 30.6975 226.343 31.1044C226.18 31.5113 226.099 31.9426 226.099 32.3983V48.9999H219.434V22.8524H221.045L222.852 24.8544C223.779 24.0732 224.797 23.4709 225.903 23.0478C227.026 22.6083 228.19 22.3886 229.395 22.3886C230.615 22.3886 231.803 22.6164 232.959 23.0722C234.131 23.5279 235.156 24.3173 236.035 25.4403C236.442 24.887 236.906 24.4149 237.427 24.0243C237.948 23.6337 238.493 23.3163 239.062 23.0722C239.648 22.828 240.251 22.6571 240.869 22.5595C241.488 22.4455 242.098 22.3886 242.7 22.3886C244.084 22.3886 245.378 22.649 246.582 23.1698C247.803 23.6907 248.861 24.4068 249.756 25.3183C250.667 26.2135 251.383 27.2714 251.904 28.4921C252.425 29.7128 252.686 31.0149 252.686 32.3983V48.9999Z" fill="#3C696C"/>
<path d="M8.44922 62.9999H3.64941V55.998H8.44922V57.3993H5.05078V58.8007H7.35059V60.2021H5.05078V61.5985H8.44922V62.9999ZM10.6221 62.9999H9.28906V57.7704H9.61133L10.0508 58.2782C10.2656 58.0829 10.5081 57.9332 10.7783 57.829C11.0518 57.7216 11.3366 57.6679 11.6328 57.6679C11.9518 57.6679 12.2529 57.7297 12.5361 57.8534C12.8193 57.9739 13.0667 58.1415 13.2783 58.3564C13.4899 58.5679 13.6559 58.817 13.7764 59.1034C13.9001 59.3866 13.9619 59.6894 13.9619 60.0116V62.9999H12.6289V60.0116C12.6289 59.8749 12.6029 59.7463 12.5508 59.6259C12.4987 59.5022 12.4271 59.3948 12.3359 59.3036C12.2448 59.2125 12.139 59.1409 12.0186 59.0888C11.8981 59.0367 11.7695 59.0107 11.6328 59.0107C11.4928 59.0107 11.361 59.0367 11.2373 59.0888C11.1136 59.1409 11.0062 59.2125 10.915 59.3036C10.8239 59.3948 10.7523 59.5022 10.7002 59.6259C10.6481 59.7463 10.6221 59.8749 10.6221 60.0116V62.9999ZM16.5059 56.3495C16.5059 56.4732 16.4814 56.5888 16.4326 56.6962C16.387 56.8036 16.3236 56.898 16.2422 56.9794C16.1641 57.0575 16.0697 57.121 15.959 57.1698C15.8516 57.2154 15.7376 57.2382 15.6172 57.2382C15.4902 57.2382 15.3714 57.2154 15.2607 57.1698C15.1533 57.121 15.0589 57.0575 14.9775 56.9794C14.8962 56.898 14.8311 56.8036 14.7822 56.6962C14.7367 56.5888 14.7139 56.4732 14.7139 56.3495C14.7139 56.2291 14.7367 56.1151 14.7822 56.0077C14.8311 55.897 14.8962 55.8026 14.9775 55.7245C15.0589 55.6431 15.1533 55.5797 15.2607 55.5341C15.3714 55.4853 15.4902 55.4608 15.6172 55.4608C15.7376 55.4608 15.8516 55.4853 15.959 55.5341C16.0697 55.5797 16.1641 55.6431 16.2422 55.7245C16.3236 55.8026 16.387 55.897 16.4326 56.0077C16.4814 56.1151 16.5059 56.2291 16.5059 56.3495ZM12.9268 64.9921V63.6493L13.6641 63.6591C13.8431 63.6591 14.0091 63.6217 14.1621 63.5468C14.3151 63.4752 14.4469 63.3775 14.5576 63.2538C14.6715 63.1334 14.7611 62.9934 14.8262 62.8339C14.8913 62.6744 14.9238 62.5067 14.9238 62.331V57.7704H16.2861V62.331H16.2764C16.2731 62.5751 16.2389 62.8111 16.1738 63.039C16.112 63.2668 16.0225 63.4784 15.9053 63.6737C15.7881 63.8723 15.6481 64.0513 15.4854 64.2108C15.3226 64.3736 15.1419 64.512 14.9434 64.6259C14.748 64.7431 14.5381 64.8326 14.3135 64.8944C14.0856 64.9595 13.8496 64.9921 13.6055 64.9921H12.9268ZM22.3506 60.3388C22.3506 60.7294 22.2806 61.094 22.1406 61.4325C22.0007 61.7678 21.8102 62.0592 21.5693 62.3065C21.3285 62.5507 21.0452 62.7444 20.7197 62.8876C20.3975 63.0276 20.0508 63.0976 19.6797 63.0976C19.3118 63.0976 18.9652 63.0276 18.6396 62.8876C18.3174 62.7444 18.0342 62.5507 17.79 62.3065C17.5492 62.0592 17.3587 61.7678 17.2188 61.4325C17.0788 61.094 17.0088 60.7294 17.0088 60.3388C17.0088 59.9416 17.0788 59.5738 17.2188 59.2353C17.3587 58.8967 17.5492 58.6054 17.79 58.3612C18.0342 58.1138 18.3174 57.9202 18.6396 57.7802C18.9652 57.6402 19.3118 57.5702 19.6797 57.5702C20.0508 57.5702 20.3975 57.637 20.7197 57.7704C21.0452 57.9006 21.3285 58.0878 21.5693 58.3319C21.8102 58.5728 22.0007 58.8642 22.1406 59.206C22.2806 59.5445 22.3506 59.9221 22.3506 60.3388ZM21.0078 60.3388C21.0078 60.1239 20.972 59.9302 20.9004 59.7577C20.832 59.5819 20.7376 59.4322 20.6172 59.3085C20.4967 59.1815 20.3551 59.0855 20.1924 59.0204C20.0329 58.9521 19.862 58.9179 19.6797 58.9179C19.4974 58.9179 19.3249 58.9521 19.1621 59.0204C19.0026 59.0855 18.8626 59.1815 18.7422 59.3085C18.625 59.4322 18.5322 59.5819 18.4639 59.7577C18.3955 59.9302 18.3613 60.1239 18.3613 60.3388C18.3613 60.5406 18.3955 60.7278 18.4639 60.9003C18.5322 61.0728 18.625 61.2226 18.7422 61.3495C18.8626 61.4765 19.0026 61.5774 19.1621 61.6523C19.3249 61.7239 19.4974 61.7597 19.6797 61.7597C19.862 61.7597 20.0329 61.7255 20.1924 61.6571C20.3551 61.5888 20.4967 61.4927 20.6172 61.369C20.7376 61.2454 20.832 61.0956 20.9004 60.9198C20.972 60.744 21.0078 60.5504 21.0078 60.3388ZM24.3477 64.9921V63.6493L25.0898 63.6591C25.2201 63.6591 25.3454 63.6379 25.4658 63.5956C25.5863 63.5533 25.6969 63.4947 25.7979 63.4198C25.902 63.345 25.9932 63.2554 26.0713 63.1513C26.1494 63.0504 26.2129 62.9397 26.2617 62.8192C26.1152 62.8811 25.9655 62.9429 25.8125 63.0048C25.6628 63.0666 25.5114 63.0976 25.3584 63.0976C25.0361 63.0976 24.7334 63.0406 24.4502 62.9267C24.167 62.8127 23.918 62.6516 23.7031 62.4433C23.4915 62.2317 23.3239 61.9761 23.2002 61.6767C23.0798 61.3739 23.0195 61.0354 23.0195 60.661V57.7704H24.3477V60.661C24.3477 60.8466 24.3737 61.0093 24.4258 61.1493C24.4811 61.286 24.5544 61.4016 24.6455 61.496C24.7367 61.5871 24.8424 61.6555 24.9629 61.7011C25.0866 61.7467 25.2184 61.7694 25.3584 61.7694C25.4951 61.7694 25.6237 61.7385 25.7441 61.6767C25.8678 61.6116 25.9753 61.5269 26.0664 61.4228C26.1576 61.3186 26.2292 61.2014 26.2812 61.0712C26.3333 60.9377 26.3594 60.801 26.3594 60.661V57.7704H27.7021V62.3407C27.6989 62.7086 27.6273 63.0536 27.4873 63.3759C27.3473 63.6982 27.1553 63.9797 26.9111 64.2206C26.6702 64.4615 26.3887 64.6519 26.0664 64.7919C25.7441 64.9319 25.3991 65.0019 25.0312 65.0019L24.3477 64.9921ZM33.6055 61.7206C33.6576 61.7369 33.7096 61.7483 33.7617 61.7548C33.8138 61.758 33.8659 61.7597 33.918 61.7597C34.0482 61.7597 34.1735 61.7418 34.2939 61.706C34.4144 61.6702 34.5267 61.6197 34.6309 61.5546C34.7383 61.4862 34.8327 61.4049 34.9141 61.3105C34.9987 61.2128 35.0671 61.1054 35.1191 60.9882L36.0957 61.9696C35.972 62.1454 35.8288 62.3033 35.666 62.4433C35.5065 62.5832 35.3324 62.7021 35.1436 62.7997C34.958 62.8974 34.7611 62.9706 34.5527 63.0194C34.3477 63.0715 34.1361 63.0976 33.918 63.0976C33.5501 63.0976 33.2035 63.0292 32.8779 62.8925C32.5557 62.7558 32.2725 62.5653 32.0283 62.3212C31.7874 62.0771 31.597 61.7873 31.457 61.4521C31.3171 61.1135 31.2471 60.7424 31.2471 60.3388C31.2471 59.9254 31.3171 59.5478 31.457 59.206C31.597 58.8642 31.7874 58.5728 32.0283 58.3319C32.2725 58.0911 32.5557 57.9039 32.8779 57.7704C33.2035 57.637 33.5501 57.5702 33.918 57.5702C34.1361 57.5702 34.3493 57.5963 34.5576 57.6483C34.766 57.7004 34.9629 57.7753 35.1484 57.873C35.3372 57.9706 35.513 58.0911 35.6758 58.2343C35.8385 58.3743 35.9818 58.5321 36.1055 58.7079L33.6055 61.7206ZM34.2891 58.9716C34.2272 58.9488 34.1654 58.9342 34.1035 58.9276C34.0449 58.9211 33.9831 58.9179 33.918 58.9179C33.7357 58.9179 33.5632 58.9521 33.4004 59.0204C33.2409 59.0855 33.1009 59.1799 32.9805 59.3036C32.8633 59.4273 32.7705 59.5771 32.7021 59.7528C32.6338 59.9254 32.5996 60.1207 32.5996 60.3388C32.5996 60.3876 32.6012 60.4429 32.6045 60.5048C32.611 60.5666 32.6191 60.6301 32.6289 60.6952C32.6419 60.7571 32.6566 60.8173 32.6729 60.8759C32.6891 60.9345 32.7103 60.9866 32.7363 61.0321L34.2891 58.9716ZM38.1953 62.9999L36.2031 57.7704H37.7217L38.8643 61.0321L40.002 57.7704H41.5254L39.5332 62.9999H38.1953ZM43.957 61.7206C44.0091 61.7369 44.0612 61.7483 44.1133 61.7548C44.1654 61.758 44.2174 61.7597 44.2695 61.7597C44.3997 61.7597 44.5251 61.7418 44.6455 61.706C44.766 61.6702 44.8783 61.6197 44.9824 61.5546C45.0898 61.4862 45.1842 61.4049 45.2656 61.3105C45.3503 61.2128 45.4186 61.1054 45.4707 60.9882L46.4473 61.9696C46.3236 62.1454 46.1803 62.3033 46.0176 62.4433C45.8581 62.5832 45.6839 62.7021 45.4951 62.7997C45.3096 62.8974 45.1126 62.9706 44.9043 63.0194C44.6992 63.0715 44.4876 63.0976 44.2695 63.0976C43.9017 63.0976 43.555 63.0292 43.2295 62.8925C42.9072 62.7558 42.624 62.5653 42.3799 62.3212C42.139 62.0771 41.9486 61.7873 41.8086 61.4521C41.6686 61.1135 41.5986 60.7424 41.5986 60.3388C41.5986 59.9254 41.6686 59.5478 41.8086 59.206C41.9486 58.8642 42.139 58.5728 42.3799 58.3319C42.624 58.0911 42.9072 57.9039 43.2295 57.7704C43.555 57.637 43.9017 57.5702 44.2695 57.5702C44.4876 57.5702 44.7008 57.5963 44.9092 57.6483C45.1175 57.7004 45.3145 57.7753 45.5 57.873C45.6888 57.9706 45.8646 58.0911 46.0273 58.2343C46.1901 58.3743 46.3333 58.5321 46.457 58.7079L43.957 61.7206ZM44.6406 58.9716C44.5788 58.9488 44.5169 58.9342 44.4551 58.9276C44.3965 58.9211 44.3346 58.9179 44.2695 58.9179C44.0872 58.9179 43.9147 58.9521 43.752 59.0204C43.5924 59.0855 43.4525 59.1799 43.332 59.3036C43.2148 59.4273 43.1221 59.5771 43.0537 59.7528C42.9854 59.9254 42.9512 60.1207 42.9512 60.3388C42.9512 60.3876 42.9528 60.4429 42.9561 60.5048C42.9626 60.5666 42.9707 60.6301 42.9805 60.6952C42.9935 60.7571 43.0081 60.8173 43.0244 60.8759C43.0407 60.9345 43.0618 60.9866 43.0879 61.0321L44.6406 58.9716ZM48.4639 62.9999H47.1309V57.7704H47.4531L47.8926 58.3905C48.1074 58.1952 48.3516 58.0455 48.625 57.9413C48.8984 57.8339 49.1816 57.7802 49.4746 57.7802H50.6514V59.1083H49.4746C49.3346 59.1083 49.2028 59.1343 49.0791 59.1864C48.9554 59.2385 48.848 59.3101 48.7568 59.4013C48.6657 59.4924 48.5941 59.5998 48.542 59.7235C48.4899 59.8472 48.4639 59.9791 48.4639 60.119V62.9999ZM52.8438 56.3495C52.8438 56.4732 52.8193 56.5888 52.7705 56.6962C52.7249 56.8036 52.6615 56.898 52.5801 56.9794C52.4987 57.0575 52.4027 57.121 52.292 57.1698C52.1846 57.2154 52.069 57.2382 51.9453 57.2382C51.8216 57.2382 51.7044 57.2154 51.5938 57.1698C51.4863 57.121 51.3919 57.0575 51.3105 56.9794C51.2324 56.898 51.1689 56.8036 51.1201 56.6962C51.0745 56.5888 51.0518 56.4732 51.0518 56.3495C51.0518 56.2291 51.0745 56.1151 51.1201 56.0077C51.1689 55.897 51.2324 55.8026 51.3105 55.7245C51.3919 55.6431 51.4863 55.5797 51.5938 55.5341C51.7044 55.4853 51.8216 55.4608 51.9453 55.4608C52.069 55.4608 52.1846 55.4853 52.292 55.5341C52.4027 55.5797 52.4987 55.6431 52.5801 55.7245C52.6615 55.8026 52.7249 55.897 52.7705 56.0077C52.8193 56.1151 52.8438 56.2291 52.8438 56.3495ZM52.6143 62.9999H51.2715V57.7704H52.6143V62.9999ZM56.2568 62.9999C55.9346 62.9999 55.6318 62.9397 55.3486 62.8192C55.0654 62.6955 54.8164 62.5279 54.6016 62.3163C54.39 62.1015 54.2223 61.8524 54.0986 61.5692C53.9782 61.286 53.918 60.9833 53.918 60.661V59.1083H53.2686V57.7802H53.918V55.6903H55.2461V57.7802H57.2676V59.1083H55.2461V60.661C55.2461 60.801 55.2721 60.9329 55.3242 61.0565C55.3763 61.177 55.4479 61.2828 55.5391 61.3739C55.6302 61.4651 55.7376 61.5383 55.8613 61.5937C55.985 61.6457 56.1169 61.6718 56.2568 61.6718H57.2676V62.9999H56.2568ZM59.3525 62.9999H58.0195V55.6903H59.3525V57.9999C59.512 57.8795 59.6764 57.7948 59.8457 57.746C60.015 57.6939 60.1875 57.6679 60.3633 57.6679C60.6855 57.6679 60.9883 57.7297 61.2715 57.8534C61.5547 57.9739 61.8005 58.1415 62.0088 58.3564C62.2204 58.5679 62.3864 58.817 62.5068 59.1034C62.6305 59.3866 62.6924 59.6894 62.6924 60.0116V62.9999H61.3496V60.0116H61.3594C61.3594 59.8749 61.3333 59.7463 61.2812 59.6259C61.2292 59.5022 61.1576 59.3948 61.0664 59.3036C60.9753 59.2125 60.8695 59.1409 60.749 59.0888C60.6286 59.0367 60.5 59.0107 60.3633 59.0107C60.2233 59.0107 60.0915 59.0367 59.9678 59.0888C59.8441 59.1409 59.7367 59.2125 59.6455 59.3036C59.5544 59.3948 59.4827 59.5022 59.4307 59.6259C59.3786 59.7463 59.3525 59.8749 59.3525 60.0116V62.9999ZM65.2168 56.3495C65.2168 56.4732 65.1924 56.5888 65.1436 56.6962C65.098 56.8036 65.0345 56.898 64.9531 56.9794C64.8717 57.0575 64.7757 57.121 64.665 57.1698C64.5576 57.2154 64.4421 57.2382 64.3184 57.2382C64.1947 57.2382 64.0775 57.2154 63.9668 57.1698C63.8594 57.121 63.765 57.0575 63.6836 56.9794C63.6055 56.898 63.542 56.8036 63.4932 56.6962C63.4476 56.5888 63.4248 56.4732 63.4248 56.3495C63.4248 56.2291 63.4476 56.1151 63.4932 56.0077C63.542 55.897 63.6055 55.8026 63.6836 55.7245C63.765 55.6431 63.8594 55.5797 63.9668 55.5341C64.0775 55.4853 64.1947 55.4608 64.3184 55.4608C64.4421 55.4608 64.5576 55.4853 64.665 55.5341C64.7757 55.5797 64.8717 55.6431 64.9531 55.7245C65.0345 55.8026 65.098 55.897 65.1436 56.0077C65.1924 56.1151 65.2168 56.2291 65.2168 56.3495ZM64.9873 62.9999H63.6445V57.7704H64.9873V62.9999ZM67.3408 62.9999H66.0078V57.7704H66.3301L66.7695 58.2782C66.9844 58.0829 67.2269 57.9332 67.4971 57.829C67.7705 57.7216 68.0553 57.6679 68.3516 57.6679C68.6706 57.6679 68.9717 57.7297 69.2549 57.8534C69.5381 57.9739 69.7855 58.1415 69.9971 58.3564C70.2087 58.5679 70.3747 58.817 70.4951 59.1034C70.6188 59.3866 70.6807 59.6894 70.6807 60.0116V62.9999H69.3477V60.0116C69.3477 59.8749 69.3216 59.7463 69.2695 59.6259C69.2174 59.5022 69.1458 59.3948 69.0547 59.3036C68.9635 59.2125 68.8577 59.1409 68.7373 59.0888C68.6169 59.0367 68.4883 59.0107 68.3516 59.0107C68.2116 59.0107 68.0798 59.0367 67.9561 59.0888C67.8324 59.1409 67.7249 59.2125 67.6338 59.3036C67.5426 59.3948 67.471 59.5022 67.4189 59.6259C67.3669 59.7463 67.3408 59.8749 67.3408 60.0116V62.9999ZM75.3535 60.3388C75.3535 60.1565 75.3177 59.9807 75.2461 59.8114C75.1777 59.6389 75.0833 59.4875 74.9629 59.3573C74.8424 59.2239 74.7008 59.1181 74.5381 59.0399C74.3786 58.9586 74.2077 58.9179 74.0254 58.9179C73.8431 58.9179 73.6706 58.9488 73.5078 59.0107C73.3483 59.0725 73.2083 59.1636 73.0879 59.2841C72.9707 59.4045 72.8779 59.5543 72.8096 59.7333C72.7412 59.9091 72.707 60.1109 72.707 60.3388C72.707 60.5569 72.7412 60.7538 72.8096 60.9296C72.8779 61.1021 72.9707 61.2502 73.0879 61.3739C73.2083 61.4976 73.3483 61.5937 73.5078 61.662C73.6706 61.7271 73.8431 61.7597 74.0254 61.7597C74.2077 61.7597 74.3786 61.7206 74.5381 61.6425C74.7008 61.5611 74.8424 61.4553 74.9629 61.3251C75.0833 61.1916 75.1777 61.0403 75.2461 60.871C75.3177 60.6985 75.3535 60.5211 75.3535 60.3388ZM76.6963 62.3407C76.6963 62.7086 76.6263 63.0536 76.4863 63.3759C76.3464 63.6982 76.1543 63.9797 75.9102 64.2206C75.6693 64.4615 75.3861 64.6519 75.0605 64.7919C74.7383 64.9319 74.3932 65.0019 74.0254 65.0019L73.3564 64.9921V63.6591L74.0156 63.6689C74.224 63.6689 74.4014 63.6412 74.5479 63.5858C74.6943 63.5338 74.818 63.4605 74.9189 63.3661C75.0199 63.275 75.0996 63.1692 75.1582 63.0487C75.2201 62.9283 75.2689 62.8013 75.3047 62.6679C75.2526 62.7525 75.1777 62.8225 75.0801 62.8778C74.9824 62.9299 74.8734 62.9722 74.7529 63.0048C74.6357 63.0406 74.512 63.065 74.3818 63.078C74.2549 63.0911 74.1361 63.0976 74.0254 63.0976C73.6576 63.0976 73.3109 63.0341 72.9854 62.9071C72.6631 62.7802 72.3799 62.5995 72.1357 62.3651C71.8949 62.1275 71.7044 61.8378 71.5645 61.496C71.4245 61.1542 71.3545 60.7685 71.3545 60.3388C71.3545 59.9449 71.4245 59.5787 71.5645 59.2401C71.7044 58.9016 71.8949 58.6086 72.1357 58.3612C72.3799 58.1138 72.6631 57.9202 72.9854 57.7802C73.3109 57.6402 73.6576 57.5702 74.0254 57.5702C74.1947 57.5702 74.3623 57.5914 74.5283 57.6337C74.6943 57.676 74.8555 57.7346 75.0117 57.8095C75.168 57.8843 75.3161 57.9722 75.4561 58.0732C75.5993 58.1741 75.7327 58.2831 75.8564 58.4003L76.374 57.7802H76.6963V62.3407Z" fill="#D3D3D3"/>
<path d="M86.9998 62.4999L252.856 62.4973" stroke="#D3D3D3"/>
</svg>
