<svg width="258" height="66" viewBox="0 0 258 66" fill="none" xmlns="http://www.w3.org/2000/svg">
<path d="M10.2539 49H3.24707V13.9902H10.2539V31.4951L23.291 13.9902H31.25L20.1904 28.7607L31.25 49H23.291L15.6006 34.8398L10.2539 41.9932V49ZM51.3916 45.9482C50.8545 46.4365 50.2767 46.9004 49.6582 47.3398C49.056 47.763 48.4212 48.1374 47.7539 48.4629C47.0866 48.7721 46.3949 49.0163 45.6787 49.1953C44.9788 49.3906 44.2627 49.4883 43.5303 49.4883C41.9189 49.4883 40.4053 49.2035 38.9893 48.6338C37.5732 48.0641 36.3281 47.2585 35.2539 46.2168C34.196 45.1589 33.3577 43.8812 32.7393 42.3838C32.137 40.8701 31.8359 39.1774 31.8359 37.3057V22.8525H38.4766V37.3057C38.4766 38.1846 38.6068 38.974 38.8672 39.6738C39.1439 40.3574 39.5101 40.9352 39.9658 41.4072C40.4215 41.8792 40.9505 42.2373 41.5527 42.4814C42.1712 42.7256 42.8304 42.8477 43.5303 42.8477C44.2139 42.8477 44.8568 42.693 45.459 42.3838C46.0775 42.0583 46.6146 41.6351 47.0703 41.1143C47.526 40.5934 47.8841 40.0075 48.1445 39.3564C48.4049 38.6891 48.5352 38.0055 48.5352 37.3057V22.8525H55.2002V49H53.5889L51.3916 45.9482ZM74.6582 49H59.4238V42.3594H74.6582C75.1139 42.3594 75.5046 42.1966 75.8301 41.8711C76.1556 41.5456 76.3184 41.1549 76.3184 40.6992C76.3184 40.2272 76.1556 39.918 75.8301 39.7715C75.5046 39.625 75.1139 39.5518 74.6582 39.5518H67.7246C66.569 39.5518 65.4867 39.332 64.4775 38.8926C63.4684 38.4531 62.5895 37.859 61.8408 37.1104C61.0921 36.3454 60.498 35.4583 60.0586 34.4492C59.6354 33.4401 59.4238 32.3577 59.4238 31.2021C59.4238 30.0465 59.6354 28.9642 60.0586 27.9551C60.498 26.946 61.0921 26.0671 61.8408 25.3184C62.5895 24.5697 63.4684 23.9837 64.4775 23.5605C65.4867 23.1211 66.569 22.9014 67.7246 22.9014H81.2256V29.542H67.7246C67.2689 29.542 66.8783 29.7048 66.5527 30.0303C66.2272 30.3558 66.0645 30.7464 66.0645 31.2021C66.0645 31.6742 66.2272 32.0811 66.5527 32.4229C66.8783 32.7484 67.2689 32.9111 67.7246 32.9111H74.6582C75.7975 32.9111 76.8717 33.1064 77.8809 33.4971C78.89 33.8714 79.7689 34.4004 80.5176 35.084C81.2663 35.7676 81.8604 36.5895 82.2998 37.5498C82.7393 38.5101 82.959 39.5599 82.959 40.6992C82.959 41.8548 82.7393 42.9372 82.2998 43.9463C81.8604 44.9391 81.2663 45.818 80.5176 46.583C79.7689 47.3317 78.89 47.9258 77.8809 48.3652C76.8717 48.7884 75.7975 49 74.6582 49ZM85.1807 24.4883C85.1807 23.0397 85.4574 21.6807 86.0107 20.4111C86.5641 19.1416 87.3128 18.0348 88.2568 17.0908C89.2171 16.1305 90.332 15.3737 91.6016 14.8203C92.8711 14.2669 94.2301 13.9902 95.6787 13.9902H111.743V20.9971H95.6787C95.1904 20.9971 94.7347 21.0866 94.3115 21.2656C93.8883 21.4447 93.514 21.6969 93.1885 22.0225C92.8792 22.3317 92.6351 22.6979 92.4561 23.1211C92.277 23.5443 92.1875 24 92.1875 24.4883C92.1875 24.9766 92.277 25.4404 92.4561 25.8799C92.6351 26.3031 92.8792 26.6774 93.1885 27.0029C93.514 27.3122 93.8883 27.5563 94.3115 27.7354C94.7347 27.9144 95.1904 28.0039 95.6787 28.0039H102.686C104.134 28.0039 105.493 28.2806 106.763 28.834C108.049 29.3711 109.163 30.1198 110.107 31.0801C111.068 32.0241 111.816 33.139 112.354 34.4248C112.907 35.6943 113.184 37.0534 113.184 38.502C113.184 39.9505 112.907 41.3096 112.354 42.5791C111.816 43.8486 111.068 44.9635 110.107 45.9238C109.163 46.8678 108.049 47.6165 106.763 48.1699C105.493 48.7233 104.134 49 102.686 49H87.1338V41.9932H102.686C103.174 41.9932 103.63 41.9036 104.053 41.7246C104.476 41.5456 104.842 41.3014 105.151 40.9922C105.477 40.6667 105.729 40.2923 105.908 39.8691C106.087 39.446 106.177 38.9902 106.177 38.502C106.177 38.0137 106.087 37.5579 105.908 37.1348C105.729 36.7116 105.477 36.3454 105.151 36.0361C104.842 35.7106 104.476 35.4583 104.053 35.2793C103.63 35.1003 103.174 35.0107 102.686 35.0107H95.6787C94.2301 35.0107 92.8711 34.734 91.6016 34.1807C90.332 33.6273 89.2171 32.8786 88.2568 31.9346C87.3128 30.9743 86.5641 29.8594 86.0107 28.5898C85.4574 27.304 85.1807 25.9368 85.1807 24.4883ZM123.145 58.9609V52.2471L126.855 52.2959C127.507 52.2959 128.133 52.1901 128.735 51.9785C129.338 51.7669 129.891 51.474 130.396 51.0996C130.916 50.7253 131.372 50.2777 131.763 49.7568C132.153 49.2523 132.471 48.6989 132.715 48.0967C131.982 48.4059 131.234 48.7152 130.469 49.0244C129.72 49.3337 128.963 49.4883 128.198 49.4883C126.587 49.4883 125.073 49.2035 123.657 48.6338C122.241 48.0641 120.996 47.2585 119.922 46.2168C118.864 45.1589 118.026 43.8812 117.407 42.3838C116.805 40.8701 116.504 39.1774 116.504 37.3057V22.8525H123.145V37.3057C123.145 38.2334 123.275 39.0472 123.535 39.7471C123.812 40.4307 124.178 41.0085 124.634 41.4805C125.09 41.9362 125.618 42.278 126.221 42.5059C126.839 42.7337 127.498 42.8477 128.198 42.8477C128.882 42.8477 129.525 42.693 130.127 42.3838C130.745 42.0583 131.283 41.6351 131.738 41.1143C132.194 40.5934 132.552 40.0075 132.812 39.3564C133.073 38.6891 133.203 38.0055 133.203 37.3057V22.8525H139.917V45.7041C139.901 47.5433 139.543 49.2686 138.843 50.8799C138.143 52.4912 137.183 53.8991 135.962 55.1035C134.757 56.3079 133.35 57.2601 131.738 57.96C130.127 58.6598 128.402 59.0098 126.562 59.0098L123.145 58.9609ZM159.375 49H144.141V42.3594H159.375C159.831 42.3594 160.221 42.1966 160.547 41.8711C160.872 41.5456 161.035 41.1549 161.035 40.6992C161.035 40.2272 160.872 39.918 160.547 39.7715C160.221 39.625 159.831 39.5518 159.375 39.5518H152.441C151.286 39.5518 150.203 39.332 149.194 38.8926C148.185 38.4531 147.306 37.859 146.558 37.1104C145.809 36.3454 145.215 35.4583 144.775 34.4492C144.352 33.4401 144.141 32.3577 144.141 31.2021C144.141 30.0465 144.352 28.9642 144.775 27.9551C145.215 26.946 145.809 26.0671 146.558 25.3184C147.306 24.5697 148.185 23.9837 149.194 23.5605C150.203 23.1211 151.286 22.9014 152.441 22.9014H165.942V29.542H152.441C151.986 29.542 151.595 29.7048 151.27 30.0303C150.944 30.3558 150.781 30.7464 150.781 31.2021C150.781 31.6742 150.944 32.0811 151.27 32.4229C151.595 32.7484 151.986 32.9111 152.441 32.9111H159.375C160.514 32.9111 161.589 33.1064 162.598 33.4971C163.607 33.8714 164.486 34.4004 165.234 35.084C165.983 35.7676 166.577 36.5895 167.017 37.5498C167.456 38.5101 167.676 39.5599 167.676 40.6992C167.676 41.8548 167.456 42.9372 167.017 43.9463C166.577 44.9391 165.983 45.818 165.234 46.583C164.486 47.3317 163.607 47.9258 162.598 48.3652C161.589 48.7884 160.514 49 159.375 49ZM184.351 49C182.739 49 181.226 48.6989 179.81 48.0967C178.394 47.4782 177.148 46.64 176.074 45.582C175.016 44.5078 174.178 43.2627 173.56 41.8467C172.957 40.4307 172.656 38.917 172.656 37.3057V29.542H169.409V22.9014H172.656V12.4521H179.297V22.9014H189.404V29.542H179.297V37.3057C179.297 38.0055 179.427 38.6647 179.688 39.2832C179.948 39.8854 180.306 40.4144 180.762 40.8701C181.217 41.3258 181.755 41.6921 182.373 41.9688C182.992 42.2292 183.651 42.3594 184.351 42.3594H189.404V49H184.351ZM203.564 42.6035C203.825 42.6849 204.085 42.7419 204.346 42.7744C204.606 42.7907 204.867 42.7988 205.127 42.7988C205.778 42.7988 206.405 42.7093 207.007 42.5303C207.609 42.3512 208.171 42.099 208.691 41.7734C209.229 41.4316 209.701 41.0247 210.107 40.5527C210.531 40.0645 210.872 39.5273 211.133 38.9414L216.016 43.8486C215.397 44.7275 214.681 45.5169 213.867 46.2168C213.07 46.9167 212.199 47.5107 211.255 47.999C210.327 48.4873 209.342 48.8535 208.301 49.0977C207.275 49.3581 206.217 49.4883 205.127 49.4883C203.288 49.4883 201.554 49.1465 199.927 48.4629C198.315 47.7793 196.899 46.8271 195.679 45.6064C194.474 44.3857 193.522 42.9372 192.822 41.2607C192.122 39.568 191.772 37.7126 191.772 35.6943C191.772 33.6273 192.122 31.7393 192.822 30.0303C193.522 28.3213 194.474 26.8646 195.679 25.6602C196.899 24.4557 198.315 23.5199 199.927 22.8525C201.554 22.1852 203.288 21.8516 205.127 21.8516C206.217 21.8516 207.284 21.9818 208.325 22.2422C209.367 22.5026 210.352 22.877 211.279 23.3652C212.223 23.8535 213.102 24.4557 213.916 25.1719C214.73 25.8717 215.446 26.6611 216.064 27.54L203.564 42.6035ZM206.982 28.8584C206.673 28.7445 206.364 28.6712 206.055 28.6387C205.762 28.6061 205.452 28.5898 205.127 28.5898C204.215 28.5898 203.353 28.7607 202.539 29.1025C201.742 29.4281 201.042 29.9001 200.439 30.5186C199.854 31.137 199.39 31.8857 199.048 32.7646C198.706 33.6273 198.535 34.6038 198.535 35.6943C198.535 35.9385 198.543 36.2152 198.56 36.5244C198.592 36.8337 198.633 37.151 198.682 37.4766C198.747 37.7858 198.82 38.0869 198.901 38.3799C198.983 38.6729 199.089 38.9333 199.219 39.1611L206.982 28.8584ZM252.686 49H246.045V32.3984C246.045 31.9427 245.955 31.5114 245.776 31.1045C245.614 30.6976 245.378 30.3395 245.068 30.0303C244.759 29.721 244.401 29.485 243.994 29.3223C243.587 29.1432 243.156 29.0537 242.7 29.0537C242.244 29.0537 241.813 29.1432 241.406 29.3223C241.016 29.485 240.666 29.721 240.356 30.0303C240.063 30.3395 239.827 30.6976 239.648 31.1045C239.486 31.5114 239.404 31.9427 239.404 32.3984V49H232.739V32.3984C232.739 31.9427 232.65 31.5114 232.471 31.1045C232.308 30.6976 232.072 30.3395 231.763 30.0303C231.453 29.721 231.095 29.485 230.688 29.3223C230.282 29.1432 229.85 29.0537 229.395 29.0537C228.939 29.0537 228.507 29.1432 228.101 29.3223C227.71 29.485 227.36 29.721 227.051 30.0303C226.758 30.3395 226.522 30.6976 226.343 31.1045C226.18 31.5114 226.099 31.9427 226.099 32.3984V49H219.434V22.8525H221.045L222.852 24.8545C223.779 24.0732 224.797 23.471 225.903 23.0479C227.026 22.6084 228.19 22.3887 229.395 22.3887C230.615 22.3887 231.803 22.6165 232.959 23.0723C234.131 23.528 235.156 24.3174 236.035 25.4404C236.442 24.887 236.906 24.415 237.427 24.0244C237.948 23.6338 238.493 23.3164 239.062 23.0723C239.648 22.8281 240.251 22.6572 240.869 22.5596C241.488 22.4456 242.098 22.3887 242.7 22.3887C244.084 22.3887 245.378 22.6491 246.582 23.1699C247.803 23.6908 248.861 24.4069 249.756 25.3184C250.667 26.2135 251.383 27.2715 251.904 28.4922C252.425 29.7129 252.686 31.015 252.686 32.3984V49Z" fill="#3C696C"/>
<path d="M8.44922 63H3.64941V55.998H8.44922V57.3994H5.05078V58.8008H7.35059V60.2021H5.05078V61.5986H8.44922V63ZM10.6221 63H9.28906V57.7705H9.61133L10.0508 58.2783C10.2656 58.083 10.5081 57.9333 10.7783 57.8291C11.0518 57.7217 11.3366 57.668 11.6328 57.668C11.9518 57.668 12.2529 57.7298 12.5361 57.8535C12.8193 57.974 13.0667 58.1416 13.2783 58.3564C13.4899 58.568 13.6559 58.8171 13.7764 59.1035C13.9001 59.3867 13.9619 59.6895 13.9619 60.0117V63H12.6289V60.0117C12.6289 59.875 12.6029 59.7464 12.5508 59.626C12.4987 59.5023 12.4271 59.3949 12.3359 59.3037C12.2448 59.2126 12.139 59.141 12.0186 59.0889C11.8981 59.0368 11.7695 59.0107 11.6328 59.0107C11.4928 59.0107 11.361 59.0368 11.2373 59.0889C11.1136 59.141 11.0062 59.2126 10.915 59.3037C10.8239 59.3949 10.7523 59.5023 10.7002 59.626C10.6481 59.7464 10.6221 59.875 10.6221 60.0117V63ZM16.5059 56.3496C16.5059 56.4733 16.4814 56.5889 16.4326 56.6963C16.387 56.8037 16.3236 56.8981 16.2422 56.9795C16.1641 57.0576 16.0697 57.1211 15.959 57.1699C15.8516 57.2155 15.7376 57.2383 15.6172 57.2383C15.4902 57.2383 15.3714 57.2155 15.2607 57.1699C15.1533 57.1211 15.0589 57.0576 14.9775 56.9795C14.8962 56.8981 14.8311 56.8037 14.7822 56.6963C14.7367 56.5889 14.7139 56.4733 14.7139 56.3496C14.7139 56.2292 14.7367 56.1152 14.7822 56.0078C14.8311 55.8971 14.8962 55.8027 14.9775 55.7246C15.0589 55.6432 15.1533 55.5798 15.2607 55.5342C15.3714 55.4854 15.4902 55.4609 15.6172 55.4609C15.7376 55.4609 15.8516 55.4854 15.959 55.5342C16.0697 55.5798 16.1641 55.6432 16.2422 55.7246C16.3236 55.8027 16.387 55.8971 16.4326 56.0078C16.4814 56.1152 16.5059 56.2292 16.5059 56.3496ZM12.9268 64.9922V63.6494L13.6641 63.6592C13.8431 63.6592 14.0091 63.6217 14.1621 63.5469C14.3151 63.4753 14.4469 63.3776 14.5576 63.2539C14.6715 63.1335 14.7611 62.9935 14.8262 62.834C14.8913 62.6745 14.9238 62.5068 14.9238 62.3311V57.7705H16.2861V62.3311H16.2764C16.2731 62.5752 16.2389 62.8112 16.1738 63.0391C16.112 63.2669 16.0225 63.4785 15.9053 63.6738C15.7881 63.8724 15.6481 64.0514 15.4854 64.2109C15.3226 64.3737 15.1419 64.512 14.9434 64.626C14.748 64.7432 14.5381 64.8327 14.3135 64.8945C14.0856 64.9596 13.8496 64.9922 13.6055 64.9922H12.9268ZM22.3506 60.3389C22.3506 60.7295 22.2806 61.0941 22.1406 61.4326C22.0007 61.7679 21.8102 62.0592 21.5693 62.3066C21.3285 62.5508 21.0452 62.7445 20.7197 62.8877C20.3975 63.0277 20.0508 63.0977 19.6797 63.0977C19.3118 63.0977 18.9652 63.0277 18.6396 62.8877C18.3174 62.7445 18.0342 62.5508 17.79 62.3066C17.5492 62.0592 17.3587 61.7679 17.2188 61.4326C17.0788 61.0941 17.0088 60.7295 17.0088 60.3389C17.0088 59.9417 17.0788 59.5739 17.2188 59.2354C17.3587 58.8968 17.5492 58.6055 17.79 58.3613C18.0342 58.1139 18.3174 57.9202 18.6396 57.7803C18.9652 57.6403 19.3118 57.5703 19.6797 57.5703C20.0508 57.5703 20.3975 57.637 20.7197 57.7705C21.0452 57.9007 21.3285 58.0879 21.5693 58.332C21.8102 58.5729 22.0007 58.8643 22.1406 59.2061C22.2806 59.5446 22.3506 59.9222 22.3506 60.3389ZM21.0078 60.3389C21.0078 60.124 20.972 59.9303 20.9004 59.7578C20.832 59.582 20.7376 59.4323 20.6172 59.3086C20.4967 59.1816 20.3551 59.0856 20.1924 59.0205C20.0329 58.9521 19.862 58.918 19.6797 58.918C19.4974 58.918 19.3249 58.9521 19.1621 59.0205C19.0026 59.0856 18.8626 59.1816 18.7422 59.3086C18.625 59.4323 18.5322 59.582 18.4639 59.7578C18.3955 59.9303 18.3613 60.124 18.3613 60.3389C18.3613 60.5407 18.3955 60.7279 18.4639 60.9004C18.5322 61.0729 18.625 61.2227 18.7422 61.3496C18.8626 61.4766 19.0026 61.5775 19.1621 61.6523C19.3249 61.724 19.4974 61.7598 19.6797 61.7598C19.862 61.7598 20.0329 61.7256 20.1924 61.6572C20.3551 61.5889 20.4967 61.4928 20.6172 61.3691C20.7376 61.2454 20.832 61.0957 20.9004 60.9199C20.972 60.7441 21.0078 60.5505 21.0078 60.3389ZM24.3477 64.9922V63.6494L25.0898 63.6592C25.2201 63.6592 25.3454 63.638 25.4658 63.5957C25.5863 63.5534 25.6969 63.4948 25.7979 63.4199C25.902 63.3451 25.9932 63.2555 26.0713 63.1514C26.1494 63.0505 26.2129 62.9398 26.2617 62.8193C26.1152 62.8812 25.9655 62.943 25.8125 63.0049C25.6628 63.0667 25.5114 63.0977 25.3584 63.0977C25.0361 63.0977 24.7334 63.0407 24.4502 62.9268C24.167 62.8128 23.918 62.6517 23.7031 62.4434C23.4915 62.2318 23.3239 61.9762 23.2002 61.6768C23.0798 61.374 23.0195 61.0355 23.0195 60.6611V57.7705H24.3477V60.6611C24.3477 60.8467 24.3737 61.0094 24.4258 61.1494C24.4811 61.2861 24.5544 61.4017 24.6455 61.4961C24.7367 61.5872 24.8424 61.6556 24.9629 61.7012C25.0866 61.7467 25.2184 61.7695 25.3584 61.7695C25.4951 61.7695 25.6237 61.7386 25.7441 61.6768C25.8678 61.6117 25.9753 61.527 26.0664 61.4229C26.1576 61.3187 26.2292 61.2015 26.2812 61.0713C26.3333 60.9378 26.3594 60.8011 26.3594 60.6611V57.7705H27.7021V62.3408C27.6989 62.7087 27.6273 63.0537 27.4873 63.376C27.3473 63.6982 27.1553 63.9798 26.9111 64.2207C26.6702 64.4616 26.3887 64.652 26.0664 64.792C25.7441 64.932 25.3991 65.002 25.0312 65.002L24.3477 64.9922ZM33.6055 61.7207C33.6576 61.737 33.7096 61.7484 33.7617 61.7549C33.8138 61.7581 33.8659 61.7598 33.918 61.7598C34.0482 61.7598 34.1735 61.7419 34.2939 61.7061C34.4144 61.6702 34.5267 61.6198 34.6309 61.5547C34.7383 61.4863 34.8327 61.4049 34.9141 61.3105C34.9987 61.2129 35.0671 61.1055 35.1191 60.9883L36.0957 61.9697C35.972 62.1455 35.8288 62.3034 35.666 62.4434C35.5065 62.5833 35.3324 62.7021 35.1436 62.7998C34.958 62.8975 34.7611 62.9707 34.5527 63.0195C34.3477 63.0716 34.1361 63.0977 33.918 63.0977C33.5501 63.0977 33.2035 63.0293 32.8779 62.8926C32.5557 62.7559 32.2725 62.5654 32.0283 62.3213C31.7874 62.0771 31.597 61.7874 31.457 61.4521C31.3171 61.1136 31.2471 60.7425 31.2471 60.3389C31.2471 59.9255 31.3171 59.5479 31.457 59.2061C31.597 58.8643 31.7874 58.5729 32.0283 58.332C32.2725 58.0911 32.5557 57.904 32.8779 57.7705C33.2035 57.637 33.5501 57.5703 33.918 57.5703C34.1361 57.5703 34.3493 57.5964 34.5576 57.6484C34.766 57.7005 34.9629 57.7754 35.1484 57.873C35.3372 57.9707 35.513 58.0911 35.6758 58.2344C35.8385 58.3743 35.9818 58.5322 36.1055 58.708L33.6055 61.7207ZM34.2891 58.9717C34.2272 58.9489 34.1654 58.9342 34.1035 58.9277C34.0449 58.9212 33.9831 58.918 33.918 58.918C33.7357 58.918 33.5632 58.9521 33.4004 59.0205C33.2409 59.0856 33.1009 59.18 32.9805 59.3037C32.8633 59.4274 32.7705 59.5771 32.7021 59.7529C32.6338 59.9255 32.5996 60.1208 32.5996 60.3389C32.5996 60.3877 32.6012 60.443 32.6045 60.5049C32.611 60.5667 32.6191 60.6302 32.6289 60.6953C32.6419 60.7572 32.6566 60.8174 32.6729 60.876C32.6891 60.9346 32.7103 60.9867 32.7363 61.0322L34.2891 58.9717ZM38.1953 63L36.2031 57.7705H37.7217L38.8643 61.0322L40.002 57.7705H41.5254L39.5332 63H38.1953ZM43.957 61.7207C44.0091 61.737 44.0612 61.7484 44.1133 61.7549C44.1654 61.7581 44.2174 61.7598 44.2695 61.7598C44.3997 61.7598 44.5251 61.7419 44.6455 61.7061C44.766 61.6702 44.8783 61.6198 44.9824 61.5547C45.0898 61.4863 45.1842 61.4049 45.2656 61.3105C45.3503 61.2129 45.4186 61.1055 45.4707 60.9883L46.4473 61.9697C46.3236 62.1455 46.1803 62.3034 46.0176 62.4434C45.8581 62.5833 45.6839 62.7021 45.4951 62.7998C45.3096 62.8975 45.1126 62.9707 44.9043 63.0195C44.6992 63.0716 44.4876 63.0977 44.2695 63.0977C43.9017 63.0977 43.555 63.0293 43.2295 62.8926C42.9072 62.7559 42.624 62.5654 42.3799 62.3213C42.139 62.0771 41.9486 61.7874 41.8086 61.4521C41.6686 61.1136 41.5986 60.7425 41.5986 60.3389C41.5986 59.9255 41.6686 59.5479 41.8086 59.2061C41.9486 58.8643 42.139 58.5729 42.3799 58.332C42.624 58.0911 42.9072 57.904 43.2295 57.7705C43.555 57.637 43.9017 57.5703 44.2695 57.5703C44.4876 57.5703 44.7008 57.5964 44.9092 57.6484C45.1175 57.7005 45.3145 57.7754 45.5 57.873C45.6888 57.9707 45.8646 58.0911 46.0273 58.2344C46.1901 58.3743 46.3333 58.5322 46.457 58.708L43.957 61.7207ZM44.6406 58.9717C44.5788 58.9489 44.5169 58.9342 44.4551 58.9277C44.3965 58.9212 44.3346 58.918 44.2695 58.918C44.0872 58.918 43.9147 58.9521 43.752 59.0205C43.5924 59.0856 43.4525 59.18 43.332 59.3037C43.2148 59.4274 43.1221 59.5771 43.0537 59.7529C42.9854 59.9255 42.9512 60.1208 42.9512 60.3389C42.9512 60.3877 42.9528 60.443 42.9561 60.5049C42.9626 60.5667 42.9707 60.6302 42.9805 60.6953C42.9935 60.7572 43.0081 60.8174 43.0244 60.876C43.0407 60.9346 43.0618 60.9867 43.0879 61.0322L44.6406 58.9717ZM48.4639 63H47.1309V57.7705H47.4531L47.8926 58.3906C48.1074 58.1953 48.3516 58.0456 48.625 57.9414C48.8984 57.834 49.1816 57.7803 49.4746 57.7803H50.6514V59.1084H49.4746C49.3346 59.1084 49.2028 59.1344 49.0791 59.1865C48.9554 59.2386 48.848 59.3102 48.7568 59.4014C48.6657 59.4925 48.5941 59.5999 48.542 59.7236C48.4899 59.8473 48.4639 59.9792 48.4639 60.1191V63ZM52.8438 56.3496C52.8438 56.4733 52.8193 56.5889 52.7705 56.6963C52.7249 56.8037 52.6615 56.8981 52.5801 56.9795C52.4987 57.0576 52.4027 57.1211 52.292 57.1699C52.1846 57.2155 52.069 57.2383 51.9453 57.2383C51.8216 57.2383 51.7044 57.2155 51.5938 57.1699C51.4863 57.1211 51.3919 57.0576 51.3105 56.9795C51.2324 56.8981 51.1689 56.8037 51.1201 56.6963C51.0745 56.5889 51.0518 56.4733 51.0518 56.3496C51.0518 56.2292 51.0745 56.1152 51.1201 56.0078C51.1689 55.8971 51.2324 55.8027 51.3105 55.7246C51.3919 55.6432 51.4863 55.5798 51.5938 55.5342C51.7044 55.4854 51.8216 55.4609 51.9453 55.4609C52.069 55.4609 52.1846 55.4854 52.292 55.5342C52.4027 55.5798 52.4987 55.6432 52.5801 55.7246C52.6615 55.8027 52.7249 55.8971 52.7705 56.0078C52.8193 56.1152 52.8438 56.2292 52.8438 56.3496ZM52.6143 63H51.2715V57.7705H52.6143V63ZM56.2568 63C55.9346 63 55.6318 62.9398 55.3486 62.8193C55.0654 62.6956 54.8164 62.528 54.6016 62.3164C54.39 62.1016 54.2223 61.8525 54.0986 61.5693C53.9782 61.2861 53.918 60.9834 53.918 60.6611V59.1084H53.2686V57.7803H53.918V55.6904H55.2461V57.7803H57.2676V59.1084H55.2461V60.6611C55.2461 60.8011 55.2721 60.9329 55.3242 61.0566C55.3763 61.1771 55.4479 61.2829 55.5391 61.374C55.6302 61.4652 55.7376 61.5384 55.8613 61.5938C55.985 61.6458 56.1169 61.6719 56.2568 61.6719H57.2676V63H56.2568ZM59.3525 63H58.0195V55.6904H59.3525V58C59.512 57.8796 59.6764 57.7949 59.8457 57.7461C60.015 57.694 60.1875 57.668 60.3633 57.668C60.6855 57.668 60.9883 57.7298 61.2715 57.8535C61.5547 57.974 61.8005 58.1416 62.0088 58.3564C62.2204 58.568 62.3864 58.8171 62.5068 59.1035C62.6305 59.3867 62.6924 59.6895 62.6924 60.0117V63H61.3496V60.0117H61.3594C61.3594 59.875 61.3333 59.7464 61.2812 59.626C61.2292 59.5023 61.1576 59.3949 61.0664 59.3037C60.9753 59.2126 60.8695 59.141 60.749 59.0889C60.6286 59.0368 60.5 59.0107 60.3633 59.0107C60.2233 59.0107 60.0915 59.0368 59.9678 59.0889C59.8441 59.141 59.7367 59.2126 59.6455 59.3037C59.5544 59.3949 59.4827 59.5023 59.4307 59.626C59.3786 59.7464 59.3525 59.875 59.3525 60.0117V63ZM65.2168 56.3496C65.2168 56.4733 65.1924 56.5889 65.1436 56.6963C65.098 56.8037 65.0345 56.8981 64.9531 56.9795C64.8717 57.0576 64.7757 57.1211 64.665 57.1699C64.5576 57.2155 64.4421 57.2383 64.3184 57.2383C64.1947 57.2383 64.0775 57.2155 63.9668 57.1699C63.8594 57.1211 63.765 57.0576 63.6836 56.9795C63.6055 56.8981 63.542 56.8037 63.4932 56.6963C63.4476 56.5889 63.4248 56.4733 63.4248 56.3496C63.4248 56.2292 63.4476 56.1152 63.4932 56.0078C63.542 55.8971 63.6055 55.8027 63.6836 55.7246C63.765 55.6432 63.8594 55.5798 63.9668 55.5342C64.0775 55.4854 64.1947 55.4609 64.3184 55.4609C64.4421 55.4609 64.5576 55.4854 64.665 55.5342C64.7757 55.5798 64.8717 55.6432 64.9531 55.7246C65.0345 55.8027 65.098 55.8971 65.1436 56.0078C65.1924 56.1152 65.2168 56.2292 65.2168 56.3496ZM64.9873 63H63.6445V57.7705H64.9873V63ZM67.3408 63H66.0078V57.7705H66.3301L66.7695 58.2783C66.9844 58.083 67.2269 57.9333 67.4971 57.8291C67.7705 57.7217 68.0553 57.668 68.3516 57.668C68.6706 57.668 68.9717 57.7298 69.2549 57.8535C69.5381 57.974 69.7855 58.1416 69.9971 58.3564C70.2087 58.568 70.3747 58.8171 70.4951 59.1035C70.6188 59.3867 70.6807 59.6895 70.6807 60.0117V63H69.3477V60.0117C69.3477 59.875 69.3216 59.7464 69.2695 59.626C69.2174 59.5023 69.1458 59.3949 69.0547 59.3037C68.9635 59.2126 68.8577 59.141 68.7373 59.0889C68.6169 59.0368 68.4883 59.0107 68.3516 59.0107C68.2116 59.0107 68.0798 59.0368 67.9561 59.0889C67.8324 59.141 67.7249 59.2126 67.6338 59.3037C67.5426 59.3949 67.471 59.5023 67.4189 59.626C67.3669 59.7464 67.3408 59.875 67.3408 60.0117V63ZM75.3535 60.3389C75.3535 60.1566 75.3177 59.9808 75.2461 59.8115C75.1777 59.639 75.0833 59.4876 74.9629 59.3574C74.8424 59.224 74.7008 59.1182 74.5381 59.04C74.3786 58.9587 74.2077 58.918 74.0254 58.918C73.8431 58.918 73.6706 58.9489 73.5078 59.0107C73.3483 59.0726 73.2083 59.1637 73.0879 59.2842C72.9707 59.4046 72.8779 59.5544 72.8096 59.7334C72.7412 59.9092 72.707 60.111 72.707 60.3389C72.707 60.557 72.7412 60.7539 72.8096 60.9297C72.8779 61.1022 72.9707 61.2503 73.0879 61.374C73.2083 61.4977 73.3483 61.5938 73.5078 61.6621C73.6706 61.7272 73.8431 61.7598 74.0254 61.7598C74.2077 61.7598 74.3786 61.7207 74.5381 61.6426C74.7008 61.5612 74.8424 61.4554 74.9629 61.3252C75.0833 61.1917 75.1777 61.0404 75.2461 60.8711C75.3177 60.6986 75.3535 60.5212 75.3535 60.3389ZM76.6963 62.3408C76.6963 62.7087 76.6263 63.0537 76.4863 63.376C76.3464 63.6982 76.1543 63.9798 75.9102 64.2207C75.6693 64.4616 75.3861 64.652 75.0605 64.792C74.7383 64.932 74.3932 65.002 74.0254 65.002L73.3564 64.9922V63.6592L74.0156 63.6689C74.224 63.6689 74.4014 63.6413 74.5479 63.5859C74.6943 63.5339 74.818 63.4606 74.9189 63.3662C75.0199 63.2751 75.0996 63.1693 75.1582 63.0488C75.2201 62.9284 75.2689 62.8014 75.3047 62.668C75.2526 62.7526 75.1777 62.8226 75.0801 62.8779C74.9824 62.93 74.8734 62.9723 74.7529 63.0049C74.6357 63.0407 74.512 63.0651 74.3818 63.0781C74.2549 63.0911 74.1361 63.0977 74.0254 63.0977C73.6576 63.0977 73.3109 63.0342 72.9854 62.9072C72.6631 62.7803 72.3799 62.5996 72.1357 62.3652C71.8949 62.1276 71.7044 61.8379 71.5645 61.4961C71.4245 61.1543 71.3545 60.7686 71.3545 60.3389C71.3545 59.945 71.4245 59.5788 71.5645 59.2402C71.7044 58.9017 71.8949 58.6087 72.1357 58.3613C72.3799 58.1139 72.6631 57.9202 72.9854 57.7803C73.3109 57.6403 73.6576 57.5703 74.0254 57.5703C74.1947 57.5703 74.3623 57.5915 74.5283 57.6338C74.6943 57.6761 74.8555 57.7347 75.0117 57.8096C75.168 57.8844 75.3161 57.9723 75.4561 58.0732C75.5993 58.1742 75.7327 58.2832 75.8564 58.4004L76.374 57.7803H76.6963V62.3408Z" fill="#1F2428"/>
<path d="M86.9998 62.5L252.856 62.4974" stroke="#1F2428"/>
</svg>
